<svg viewBox="419.04 382.32 246.24 164.16" xml:space="preserve" version="1.1" xmlns:xlink="http://www.w3.org/1999/xlink" xmlns="http://www.w3.org/2000/svg" style="max-height: 500px" width="246.24" height="164.16">
<desc>Created with Fabric.js 5.2.4</desc>
<defs>
</defs>
<g id="15c4376d-1170-474a-8558-e078edeec68a" transform="matrix(1 0 0 1 540 540)">
<rect height="1080" width="1080" ry="0" rx="0" y="-540" x="-540" style="stroke: none; stroke-width: 1; stroke-dasharray: none; stroke-linecap: butt; stroke-dashoffset: 0; stroke-linejoin: miter; stroke-miterlimit: 4; fill: rgb(255,255,255); fill-rule: nonzero; opacity: 1; visibility: hidden;"/>
</g>
<g id="0994bf44-8d56-47a7-a6fa-a5349de42076" transform="matrix(1 0 0 1 540 540)">
</g>
<g transform="matrix(0.72 0 0 0.41 537.16 459.27)">
<rect height="400" width="332" ry="24" rx="24" y="-200" x="-166" style="stroke: none; stroke-width: 1; stroke-dasharray: none; stroke-linecap: butt; stroke-dashoffset: 0; stroke-linejoin: miter; stroke-miterlimit: 4; fill: rgb(255,255,255); fill-rule: nonzero; opacity: 1;"/>
</g>
<g transform="matrix(1 0 0 1 540 465)">
<circle r="75" cy="0" cx="0" style="stroke: none; stroke-width: 1; stroke-dasharray: none; stroke-linecap: butt; stroke-dashoffset: 0; stroke-linejoin: miter; stroke-miterlimit: 4; fill: rgb(27,110,247); fill-opacity: 0.1; fill-rule: nonzero; opacity: 1;"/>
</g>
<g transform="matrix(1 0 0 1 540 465)">
<circle r="55" cy="0" cx="0" style="stroke: none; stroke-width: 1; stroke-dasharray: none; stroke-linecap: butt; stroke-dashoffset: 0; stroke-linejoin: miter; stroke-miterlimit: 4; fill: rgb(255,255,255); fill-rule: nonzero; opacity: 1;"/>
</g>
<g transform="matrix(1 0 0 1 539.53 464.53)">
<circle r="26.0419" cy="0" cx="0" style="stroke: none; stroke-width: 1; stroke-dasharray: none; stroke-linecap: butt; stroke-dashoffset: 0; stroke-linejoin: miter; stroke-miterlimit: 4; fill: rgb(27,110,247); fill-rule: nonzero; opacity: 1;"/>
</g>
<g transform="matrix(1 0 0 1 539.53 464.53)">
<circle r="25.0419" cy="0" cx="0" style="stroke: rgb(255,255,255); stroke-opacity: 0.2; stroke-width: 2; stroke-dasharray: none; stroke-linecap: butt; stroke-dashoffset: 0; stroke-linejoin: miter; stroke-miterlimit: 4; fill: none; fill-rule: nonzero; opacity: 1;"/>
</g>
<g transform="matrix(1 0 0 1 539.53 464.53)">
<path stroke-linecap="round" d="M 158.089 124.413 L 162.911 129.816 C 162.985 129.898 163.116 129.899 163.191 129.818 L 172.971 119.182" transform="translate(-165.53, -124.53)" style="stroke: rgb(255,255,255); stroke-width: 4.5; stroke-dasharray: none; stroke-linecap: round; stroke-dashoffset: 0; stroke-linejoin: miter; stroke-miterlimit: 4; fill: none; fill-rule: nonzero; opacity: 1;"/>
</g>
<g transform="matrix(1 0 0 1 646.64 439.64)">
<path stroke-linecap="round" d="M 269.339 92.2984 L 273.728 96.7643 L 279.976 96.3391 L 275.51 100.729 L 275.935 106.976 L 271.546 102.51 L 265.298 102.936 L 269.764 98.546 L 269.339 92.2984 Z" transform="translate(-272.64, -99.64)" style="stroke: none; stroke-width: 1; stroke-dasharray: none; stroke-linecap: butt; stroke-dashoffset: 0; stroke-linejoin: miter; stroke-miterlimit: 4; fill: rgb(27,110,247); fill-rule: nonzero; opacity: 1;"/>
</g>
<g transform="matrix(1 0 0 1 433 511)">
<path stroke-linecap="round" d="M 63.0427 164.043 L 61.9704 170.213 L 65.9558 175.043 L 59.7863 173.97 L 54.9562 177.956 L 56.0286 171.786 L 52.0432 166.956 L 58.2127 168.029 L 63.0427 164.043 Z" transform="translate(-59, -171)" style="stroke: none; stroke-width: 1; stroke-dasharray: none; stroke-linecap: butt; stroke-dashoffset: 0; stroke-linejoin: miter; stroke-miterlimit: 4; fill: rgb(27,110,247); fill-rule: nonzero; opacity: 1;"/>
</g>
<g transform="matrix(1 0 0 1 623.8 533.8)">
<path stroke-linecap="round" d="M 251.224 189.427 L 251.363 193.002 L 254.168 195.224 L 250.593 195.363 L 248.371 198.168 L 248.232 194.593 L 245.427 192.371 L 249.002 192.232 L 251.224 189.427 Z" transform="translate(-249.8, -193.8)" style="stroke: none; stroke-width: 1; stroke-dasharray: none; stroke-linecap: butt; stroke-dashoffset: 0; stroke-linejoin: miter; stroke-miterlimit: 4; fill: rgb(27,110,247); fill-rule: nonzero; opacity: 1;"/>
</g>
<g transform="matrix(1 0 0 1 439.6 401.6)">
<path stroke-linecap="round" d="M 65.5977 57 L 66.8395 60.3559 L 70.1954 61.5977 L 66.8395 62.8395 L 65.5977 66.1954 L 64.3559 62.8395 L 61 61.5977 L 64.3559 60.3559 L 65.5977 57 Z" transform="translate(-65.6, -61.6)" style="stroke: none; stroke-width: 1; stroke-dasharray: none; stroke-linecap: butt; stroke-dashoffset: 0; stroke-linejoin: miter; stroke-miterlimit: 4; fill: rgb(27,110,247); fill-rule: nonzero; opacity: 1;"/>
</g>
<g transform="matrix(1 0 0 1 607.05 395.05)">
<path stroke-linecap="round" d="M 234.051 51.9976 L 234.148 54.4976 L 236.11 56.0512 L 233.609 56.1484 L 232.056 58.1096 L 231.959 55.6096 L 229.998 54.056 L 232.498 53.9588 L 234.051 51.9976 Z" transform="translate(-233.05, -55.05)" style="stroke: none; stroke-width: 1; stroke-dasharray: none; stroke-linecap: butt; stroke-dashoffset: 0; stroke-linejoin: miter; stroke-miterlimit: 4; fill: rgb(27,110,247); fill-rule: nonzero; opacity: 1;"/>
</g>
</svg>